<svg width="26" height="24" viewBox="0 0 26 24" fill="none" xmlns="http://www.w3.org/2000/svg">
<path d="M22.6929 8.30472C22.682 7.54734 22.5284 6.79749 22.239 6.08871C21.988 5.49087 21.6047 4.94791 21.1136 4.49454C20.6224 4.04118 20.0342 3.68736 19.3866 3.45571C18.6286 3.19307 17.8278 3.05105 17.0184 3.03571C15.9762 2.99271 15.6458 2.98071 13.0003 2.98071C10.3548 2.98071 10.0157 2.98071 8.98115 3.03571C8.17208 3.05117 7.3717 3.19318 6.61407 3.45571C5.9663 3.6872 5.37801 4.04096 4.88684 4.49435C4.39567 4.94773 4.01243 5.49077 3.76165 6.08871C3.47655 6.78785 3.32304 7.52683 3.30774 8.27372C3.26115 9.23672 3.24707 9.54172 3.24707 11.9837C3.24707 14.4257 3.24707 14.7377 3.30774 15.6937C3.32399 16.4417 3.47674 17.1797 3.76165 17.8807C4.01285 18.4785 4.39637 19.0213 4.88771 19.4745C5.37904 19.9277 5.96739 20.2813 6.61515 20.5127C7.37071 20.7859 8.17122 20.9381 8.98224 20.9627C10.0255 21.0057 10.3559 21.0187 13.0014 21.0187C15.6469 21.0187 15.986 21.0187 17.0206 20.9627C17.83 20.948 18.6308 20.8063 19.3887 20.5437C20.0362 20.3118 20.6243 19.9579 21.1154 19.5046C21.6065 19.0512 21.9899 18.5084 22.2412 17.9107C22.5261 17.2107 22.6788 16.4727 22.6951 15.7237C22.7417 14.7617 22.7557 14.4567 22.7557 12.0137C22.7536 9.57172 22.7536 9.26172 22.6929 8.30472ZM12.9938 16.6017C10.227 16.6017 7.98557 14.5327 7.98557 11.9787C7.98557 9.42472 10.227 7.35571 12.9938 7.35571C14.3221 7.35571 15.596 7.84278 16.5352 8.70976C17.4744 9.57674 18.0021 10.7526 18.0021 11.9787C18.0021 13.2048 17.4744 14.3807 16.5352 15.2477C15.596 16.1147 14.3221 16.6017 12.9938 16.6017ZM18.2014 8.26271C17.5547 8.26271 17.0336 7.78071 17.0336 7.18471C17.0336 7.04322 17.0638 6.9031 17.1224 6.77237C17.1811 6.64165 17.2671 6.52286 17.3755 6.42281C17.4839 6.32275 17.6125 6.24338 17.7542 6.18923C17.8958 6.13508 18.0476 6.10721 18.2009 6.10721C18.3542 6.10721 18.5059 6.13508 18.6476 6.18923C18.7892 6.24338 18.9179 6.32275 19.0263 6.42281C19.1347 6.52286 19.2206 6.64165 19.2793 6.77237C19.338 6.9031 19.3682 7.04322 19.3682 7.18471C19.3682 7.78071 18.846 8.26271 18.2014 8.26271Z" fill="white"/>
<path d="M12.9935 14.9816C14.7902 14.9816 16.2467 13.6371 16.2467 11.9786C16.2467 10.3201 14.7902 8.97559 12.9935 8.97559C11.1968 8.97559 9.74023 10.3201 9.74023 11.9786C9.74023 13.6371 11.1968 14.9816 12.9935 14.9816Z" fill="white"/>
</svg>
