<svg width="36" height="36" viewBox="0 0 36 36" fill="none" xmlns="http://www.w3.org/2000/svg">
<path d="M35.1483 10.918C35.129 9.46632 34.8572 8.02911 34.3452 6.67062C33.9012 5.52475 33.2231 4.48409 32.3541 3.61513C31.4852 2.74618 30.4445 2.06804 29.2986 1.62404C27.9576 1.12064 26.5409 0.848444 25.1088 0.81904C23.265 0.736623 22.6804 0.713623 17.9999 0.713623C13.3194 0.713623 12.7195 0.713623 10.8891 0.81904C9.45761 0.84866 8.04156 1.12085 6.70114 1.62404C5.55509 2.06773 4.51426 2.74576 3.64527 3.61475C2.77628 4.48375 2.09824 5.52457 1.65456 6.67062C1.15015 8.01063 0.878543 9.427 0.851474 10.8585C0.769057 12.7043 0.744141 13.2889 0.744141 17.9694C0.744141 22.6499 0.744141 23.2479 0.851474 25.0802C0.880224 26.5139 1.15047 27.9284 1.65456 29.272C2.09899 30.4177 2.77752 31.4581 3.64681 32.3267C4.51609 33.1953 5.55701 33.8731 6.70306 34.3166C8.0398 34.8403 9.4561 35.1319 10.891 35.1791C12.7367 35.2615 13.3213 35.2865 18.0018 35.2865C22.6823 35.2865 23.2822 35.2865 25.1126 35.1791C26.5447 35.1509 27.9615 34.8794 29.3025 34.376C30.448 33.9315 31.4884 33.2532 32.3573 32.3843C33.2262 31.5154 33.9045 30.475 34.3491 29.3295C34.8531 27.9878 35.1234 26.5733 35.1521 25.1377C35.2346 23.2939 35.2595 22.7093 35.2595 18.0269C35.2556 13.3464 35.2556 12.7522 35.1483 10.918ZM17.9884 26.8205C13.0932 26.8205 9.12764 22.855 9.12764 17.9598C9.12764 13.0646 13.0932 9.09904 17.9884 9.09904C20.3384 9.09904 22.5922 10.0326 24.2539 11.6943C25.9156 13.356 26.8491 15.6098 26.8491 17.9598C26.8491 20.3098 25.9156 22.5636 24.2539 24.2253C22.5922 25.887 20.3384 26.8205 17.9884 26.8205ZM27.2018 10.8375C26.0576 10.8375 25.1356 9.91362 25.1356 8.77129C25.1356 8.50008 25.1891 8.23153 25.2928 7.98097C25.3966 7.73041 25.5488 7.50274 25.7405 7.31097C25.9323 7.1192 26.16 6.96707 26.4105 6.86329C26.6611 6.7595 26.9296 6.70608 27.2009 6.70608C27.4721 6.70608 27.7406 6.7595 27.9912 6.86329C28.2417 6.96707 28.4694 7.1192 28.6612 7.31097C28.8529 7.50274 29.0051 7.73041 29.1089 7.98097C29.2126 8.23153 29.2661 8.50008 29.2661 8.77129C29.2661 9.91362 28.3422 10.8375 27.2018 10.8375Z" fill="#517201"/>
<path d="M17.9887 23.7155C21.1675 23.7155 23.7444 21.1385 23.7444 17.9597C23.7444 14.7809 21.1675 12.204 17.9887 12.204C14.8098 12.204 12.2329 14.7809 12.2329 17.9597C12.2329 21.1385 14.8098 23.7155 17.9887 23.7155Z" fill="#517201"/>
</svg>
