<svg width="30" height="29" viewBox="0 0 30 29" fill="none" xmlns="http://www.w3.org/2000/svg">
<path d="M15 0C6.72 0 0 6.29062 0 14.0416C0 21.7925 6.72 28.0831 15 28.0831C23.28 28.0831 30 21.7925 30 14.0416C30 6.29062 23.28 0 15 0ZM15 4.21247C17.49 4.21247 19.5 6.09404 19.5 8.42494C19.5 10.7558 17.49 12.6374 15 12.6374C12.51 12.6374 10.5 10.7558 10.5 8.42494C10.5 6.09404 12.51 4.21247 15 4.21247ZM15 24.1515C11.25 24.1515 7.935 22.3542 6 19.6301C6.045 16.8358 12 15.3053 15 15.3053C17.985 15.3053 23.955 16.8358 24 19.6301C22.065 22.3542 18.75 24.1515 15 24.1515Z" fill="#517201"/>
</svg>
