<svg width="25" height="24" viewBox="0 0 25 24" fill="none" xmlns="http://www.w3.org/2000/svg">
<path fill-rule="evenodd" clip-rule="evenodd" d="M17.9724 14.382C17.6744 14.233 16.2134 13.515 15.9414 13.415C15.6694 13.316 15.4714 13.267 15.2724 13.565C15.0744 13.861 14.5054 14.531 14.3324 14.729C14.1584 14.928 13.9854 14.952 13.6884 14.804C13.3914 14.654 12.4334 14.341 11.2984 13.329C10.4154 12.541 9.81837 11.568 9.64537 11.27C9.47237 10.973 9.62637 10.812 9.77537 10.664C9.90937 10.531 10.0724 10.317 10.2214 10.144C10.3704 9.97001 10.4194 9.84601 10.5184 9.64701C10.6184 9.44901 10.5684 9.27601 10.4934 9.12701C10.4194 8.97801 9.82537 7.51501 9.57737 6.92001C9.33637 6.34101 9.09137 6.42001 8.90937 6.41001C8.73537 6.40201 8.53737 6.40001 8.33937 6.40001C8.14137 6.40001 7.81937 6.47401 7.54737 6.77201C7.27437 7.06901 6.50737 7.78801 6.50737 9.25101C6.50737 10.713 7.57137 12.126 7.72037 12.325C7.86937 12.523 9.81537 15.525 12.7964 16.812C13.5064 17.118 14.0594 17.301 14.4904 17.437C15.2024 17.664 15.8504 17.632 16.3624 17.555C16.9324 17.47 18.1204 16.836 18.3684 16.142C18.6154 15.448 18.6154 14.853 18.5414 14.729C18.4674 14.605 18.2694 14.531 17.9714 14.382H17.9724ZM12.5504 21.785H12.5464C10.7758 21.7853 9.03774 21.3094 7.51437 20.407L7.15437 20.193L3.41237 21.175L4.41137 17.527L4.17637 17.153C3.18651 15.5774 2.66267 13.7538 2.66537 11.893C2.66737 6.44301 7.10137 2.00901 12.5544 2.00901C15.1944 2.00901 17.6764 3.03901 19.5424 4.90701C20.4628 5.82359 21.1922 6.91358 21.6886 8.11391C22.1851 9.31424 22.4385 10.6011 22.4344 11.9C22.4324 17.35 17.9984 21.785 12.5504 21.785ZM20.9624 3.48801C19.8606 2.37893 18.5496 1.49955 17.1055 0.900811C15.6613 0.302074 14.1127 -0.00410676 12.5494 1.046e-05C5.99537 1.046e-05 0.659373 5.33501 0.657373 11.892C0.656373 13.988 1.20337 16.034 2.24437 17.837L0.557373 24L6.86137 22.346C8.60525 23.2961 10.5595 23.794 12.5454 23.794H12.5504C19.1044 23.794 24.4404 18.459 24.4424 11.901C24.4472 10.3383 24.1421 8.79011 23.5448 7.34604C22.9475 5.90198 22.0697 4.59068 20.9624 3.48801Z" fill="white"/>
</svg>
